# xmcd
#
# Track frame offsets:
#	150
#	10797
#	21521
#	31194
#	40861
#	51657
#	60288
#	70121
#	82032
#	92319
#	103874
#	111937
#	120958
#	133886
#	142956
#	153967
#
# Disc length: 2222 seconds
#
# Revision: 2
# Processed by: cddbd v1.4PL0 Copyright (c) Steve Scherf et al.
# Submitted via: audiograbber 1.80.04
#
DISCID=cd08ac10
DTITLE=Casey Sisters and the Salt Flat Stompers - Who's Crying Now?
DYEAR=1900
DGENRE=Rock and Roll
TTITLE0=Boy Crazy
TTITLE1=Set My Soul On Fire
TTITLE2=You Can't Have Him
TTITLE3=Kee-Ro-Ryin'
TTITLE4=Real Gone Jive
TTITLE5=You'll Be Sorry Someday
TTITLE6=Stop, Look, and Listen
TTITLE7=Jump Jive Party
TTITLE8=Done Gone
TTITLE9=Funny, Honey
TTITLE10=I'll Find Somebody Better
TTITLE11=Let's Go
TTITLE12=Why Doesn't My Heart Flip
TTITLE13=You Lied
TTITLE14=One Scotch, One Bourbon, One Beer
TTITLE15=Hokey Pokey Rock
EXTD=
EXTT0=
EXTT1=
EXTT2=
EXTT3=
EXTT4=
EXTT5=
EXTT6=
EXTT7=
EXTT8=
EXTT9=
EXTT10=
EXTT11=
EXTT12=
EXTT13=
EXTT14=
EXTT15=
PLAYORDER=
